<svg width="269" height="68" viewBox="0 0 269 68" fill="none" xmlns="http://www.w3.org/2000/svg">
<path d="M42.5239 25C41.4955 29.622 41.7496 31.2605 41.5257 32.1083C41.314 32.8909 38.0289 32.9235 37.2788 32.0512C33.8667 28.0895 33.5884 24.5924 30.6119 24.5924C27.7746 24.5924 25.3002 30.0378 23.4187 31.6274C21.7308 33.0539 15.0942 33.1517 13.122 31.6274C11.0953 30.0622 7.99781 24.5924 5.43875 24.5924C2.33521 24.5924 0 28.4971 0 33.3066C0 38.1161 2.43201 42.0208 5.43875 42.0208C8.68749 42.0208 11.2284 36.9586 13.1643 35.2956C14.8401 33.8528 21.5554 33.8854 23.3764 35.2956C26.8187 37.9612 27.5386 42.355 30.6119 42.355C33.0318 42.355 35.7542 37.1134 37.2364 35.1244C38.0955 33.975 41.4773 34.0729 41.5741 35.0674C41.8464 37.9612 42.5058 41.8578 42.5058 41.8578C44.7865 33.0539 42.5239 25 42.5239 25Z" fill="#27AAE1"/>
<path d="M26.7159 2.49327C28.8152 4.88173 29.8074 7.94677 28.9362 9.33257C28.065 10.7184 25.6572 9.90319 23.564 7.51474C21.4647 5.12628 20.4726 2.06123 21.3437 0.675439C22.2149 -0.710355 24.6167 0.104814 26.7159 2.49327Z" fill="#27AAE1"/>
<path d="M23.564 7.51474C21.4647 5.12628 20.4726 2.06123 21.3437 0.675439C22.2149 -0.710355 24.6167 0.104814 26.7159 2.49327C28.8152 4.88173 29.8074 7.94677 28.9362 9.33257C28.065 10.7184 25.6633 9.90319 23.564 7.51474Z" fill="#27AAE1"/>
<path d="M26.7159 64.8787C28.8152 62.4903 29.8074 59.4252 28.9362 58.0394C28.065 56.6537 25.6572 57.4688 23.564 59.8573C21.4647 62.2457 20.4726 65.3108 21.3437 66.6966C22.2149 68.0824 24.6167 67.2672 26.7159 64.8787Z" fill="#27AAE1"/>
<path d="M38.8033 15.0633C36.9642 11.1015 34.5443 8.67232 33.4009 9.63422C33.3101 9.70759 33.2315 9.81356 33.1649 9.92769C32.4874 10.963 32.8382 13.8813 32.814 14.9002C32.7838 16.4898 31.7795 16.2453 31.2895 16.2616C28.803 16.3186 26.6493 16.7262 24.8041 15.047C20.5693 11.1912 19.7102 9.7239 17.1875 9.76465C14.5679 9.80541 12.6743 13.0417 12.6743 17.0278C12.6743 21.0059 15.2515 24.2014 17.8529 24.5845C21.1743 25.0736 22.2027 22.1145 25.3789 18.324C26.2561 17.2805 32.3724 16.6529 33.298 18.055C37.8051 24.878 39.0514 24.9921 39.856 24.3807C40.7635 23.6878 40.6485 19.025 38.8033 15.0633Z" fill="#27AAE1"/>
<path d="M38.7732 52.4063C36.8735 56.3192 34.4234 58.6832 33.2981 57.6887C33.2074 57.6072 33.1348 57.5012 33.0682 57.3871C32.4088 56.3355 32.796 53.4335 32.7899 52.4063C32.7778 50.8086 31.7796 51.0287 31.2896 51.0042C28.8031 50.882 26.6615 50.4173 24.7861 52.0477C20.4968 55.7893 19.6196 57.2322 17.0907 57.1262C14.4712 57.0202 12.626 53.7269 12.6865 49.7489C12.747 45.7708 15.3666 42.6406 17.974 42.3308C21.3014 41.9314 22.2875 44.9149 25.4031 48.787C26.2622 49.8549 32.3725 50.6374 33.3163 49.2679C37.9202 42.5672 39.1664 42.4857 39.965 43.1215C40.8603 43.8307 40.6728 48.4935 38.7732 52.4063Z" fill="#27AAE1"/>
<path d="M54.1719 19.8809H59.5625V36.9023H74.6211V42H59.5625C57.8828 42 56.5059 41.3457 55.4316 40.0371C54.5918 39.0215 54.1719 37.8789 54.1719 36.6094V19.8809ZM100.15 41.9707H84.7988C83.1191 41.9707 81.7422 41.3164 80.668 40.0078C79.8281 38.9922 79.4082 37.8496 79.4082 36.5801V25.3008C79.4082 23.6406 80.0527 22.2637 81.3418 21.1699C82.3574 20.3105 83.5098 19.8809 84.7988 19.8809H99.8574V24.9785H84.7988V28.377H99.5645V33.4746H84.7988V36.873H100.15V41.9707ZM110.592 24.9785V36.873H121.754V24.9785H110.592ZM105.201 36.5801V25.3008C105.201 23.6406 105.846 22.2637 107.135 21.1699C108.15 20.3105 109.303 19.8809 110.592 19.8809H121.754C123.414 19.8809 124.791 20.5352 125.885 21.8438C126.725 22.8594 127.145 24.0117 127.145 25.3008V36.5801C127.145 38.2598 126.49 39.6367 125.182 40.7109C124.166 41.5508 123.023 41.9707 121.754 41.9707H110.592C108.912 41.9707 107.535 41.3164 106.461 40.0078C105.621 38.9922 105.201 37.8496 105.201 36.5801ZM154.373 42V27.7324L149.422 34.8223H142.859L137.879 27.7031V42H132.488V19.8809H139.051L146.141 30.0762L153.23 19.8809H159.793L159.764 19.9102V42H154.373Z" fill="#DDDDDD"/>
<path d="M173.428 25.3301H165.107V19.9102H173.428V19.8809H178.848V19.9102H187.197V25.3301H178.848V42H173.428V25.3301ZM212.844 41.9707H197.492C195.812 41.9707 194.436 41.3164 193.361 40.0078C192.521 38.9922 192.102 37.8496 192.102 36.5801V25.3008C192.102 23.6406 192.746 22.2637 194.035 21.1699C195.051 20.3105 196.203 19.8809 197.492 19.8809H212.551V24.9785H197.492V28.377H212.258V33.4746H197.492V36.873H212.844V41.9707ZM234.447 33.8555H239.838V36.5801C239.838 38.2598 239.184 39.6367 237.875 40.7109C236.859 41.5508 235.717 41.9707 234.447 41.9707H223.285C221.605 41.9707 220.229 41.3164 219.154 40.0078C218.314 38.9922 217.895 37.8496 217.895 36.5801V25.3008C217.895 23.6406 218.539 22.2637 219.828 21.1699C220.844 20.3105 221.996 19.8809 223.285 19.8809H234.447C236.107 19.8809 237.484 20.5352 238.578 21.8438C239.418 22.8594 239.838 24.0117 239.838 25.3008V27.9961H234.447V24.9785H223.285V36.873H234.447V33.8555ZM245.152 19.8809H250.543V42H245.152V19.8809ZM261.617 28.377V19.8809H267.037V42H261.617V33.4746H253.209V28.377H261.617Z" fill="#27AAE1"/>
</svg>
