<svg width="292" height="53" viewBox="0 0 292 53" fill="none" xmlns="http://www.w3.org/2000/svg">
<path d="M56.8208 14.2043H62.7174V32.8209H79.1886V38.4001H62.7174C60.8767 38.4001 59.3724 37.6829 58.1982 36.2547C57.2778 35.144 56.8208 33.8936 56.8208 32.5035V14.2043Z" fill="#DDDDDD"/>
<path d="M105.802 38.3684H89.0075C87.1667 38.3684 85.6624 37.6512 84.4882 36.223C83.5678 35.1122 83.1108 33.8618 83.1108 32.4718V20.1327C83.1108 18.3174 83.8154 16.8131 85.2245 15.6134C86.3353 14.674 87.5984 14.2043 89.0075 14.2043H105.479V19.7772H89.0075V23.4967H105.161V29.0696H89.0075V32.7891H105.802V38.3684Z" fill="#DDDDDD"/>
<path d="M110.011 32.4718V20.1327C110.011 18.3174 110.715 16.8131 112.124 15.6134C113.235 14.674 114.498 14.2043 115.907 14.2043H128.12C129.935 14.2043 131.439 14.9216 132.639 16.3497C133.559 17.4605 134.016 18.7236 134.016 20.1327V32.4718C134.016 34.3125 133.299 35.8168 131.871 36.991C130.76 37.9114 129.51 38.3684 128.12 38.3684H115.907C114.067 38.3684 112.562 37.6512 111.388 36.223C110.474 35.1122 110.011 33.8618 110.011 32.4718ZM115.907 19.7836V32.7955H128.12V19.7836H115.907Z" fill="#DDDDDD"/>
<path d="M162.484 38.4001V22.7922L157.07 30.5486H149.891L144.445 22.7605V38.4001H138.548V14.2043H145.727L153.483 25.3565L161.24 14.2043H168.419L168.387 14.2361V38.4001H162.484Z" fill="#DDDDDD"/>
<path d="M192.83 20.1644H183.728V14.2361H192.83V14.2043H198.758V14.2361H207.892V20.1644H198.758V38.4001H192.83V20.1644Z" fill="#27AAE1"/>
<path d="M234.633 38.3684H217.838C215.998 38.3684 214.493 37.6512 213.319 36.223C212.399 35.1122 211.942 33.8618 211.942 32.4718V20.1327C211.942 18.3174 212.646 16.8131 214.056 15.6134C215.166 14.674 216.429 14.2043 217.838 14.2043H234.31V19.7772H217.838V23.4967H233.992V29.0696H217.838V32.7891H234.633V38.3684Z" fill="#27AAE1"/>
<path d="M256.95 29.4886H262.847V32.4718C262.847 34.3125 262.129 35.8168 260.701 36.991C259.591 37.9114 258.34 38.3684 256.95 38.3684H244.738C242.897 38.3684 241.393 37.6512 240.219 36.223C239.298 35.1122 238.841 33.8618 238.841 32.4718V20.1327C238.841 18.3174 239.546 16.8131 240.955 15.6134C242.066 14.674 243.329 14.2043 244.738 14.2043H256.95C258.765 14.2043 260.27 14.9216 261.469 16.3497C262.39 17.4605 262.847 18.7236 262.847 20.1327V23.0778H256.95V19.7772H244.738V32.7891H256.95V29.4886Z" fill="#27AAE1"/>
<path d="M267.347 14.2043H273.244V38.4001H267.347V14.2043ZM285.354 23.4967V14.2043H291.283V38.4001H285.354V29.076H276.157V23.5031H285.354V23.4967Z" fill="#27AAE1"/>
<path d="M44.6149 19.4663C43.5359 23.0652 43.8025 24.341 43.5676 25.0011C43.3455 25.6104 39.8989 25.6358 39.1119 24.9567C35.532 21.8719 35.24 19.1489 32.1172 19.1489C29.1403 19.1489 26.5443 23.3889 24.5703 24.6266C22.7994 25.7374 15.8364 25.8135 13.7672 24.6266C11.6409 23.4079 8.39109 19.1489 5.70619 19.1489C2.45004 19.1489 0 22.1892 0 25.9341C0 29.679 2.5516 32.7194 5.70619 32.7194C9.11468 32.7194 11.7805 28.7777 13.8117 27.4829C15.5699 26.3594 22.6153 26.3848 24.5258 27.4829C28.1374 29.5584 28.8928 32.9796 32.1172 32.9796C34.6561 32.9796 37.5124 28.8983 39.0674 27.3496C39.9687 26.4546 43.5169 26.5308 43.6184 27.3051C43.9041 29.5584 44.5959 32.5924 44.5959 32.5924C46.9888 25.7437 44.6149 19.4663 44.6149 19.4663Z" fill="#27AAE1"/>
<path d="M28.0293 1.94778C30.2318 3.80753 31.2728 6.19409 30.3588 7.27313C29.4448 8.35216 26.9186 7.71745 24.7224 5.8577C22.5199 3.99795 21.4789 1.61137 22.393 0.532334C23.307 -0.553049 25.8268 0.0816848 28.0293 1.94778Z" fill="#27AAE1"/>
<path d="M24.7224 5.85129C22.5199 3.99154 21.4789 1.60496 22.393 0.525922C23.307 -0.553114 25.8268 0.0816199 28.0293 1.94137C30.2318 3.80112 31.2728 6.1877 30.3588 7.26674C29.4448 8.35212 26.9249 7.71738 24.7224 5.85129Z" fill="#27AAE1"/>
<path d="M28.0293 50.5234C30.2318 48.6637 31.2728 46.2771 30.3588 45.198C29.4448 44.119 26.9186 44.7537 24.7224 46.6135C22.5199 48.4732 21.4789 50.8598 22.393 51.9388C23.307 53.0179 25.8268 52.3832 28.0293 50.5234Z" fill="#27AAE1"/>
<path d="M40.7176 11.7287C38.788 8.64388 36.2491 6.7524 35.0495 7.50137C34.9542 7.5585 34.8717 7.641 34.8019 7.72987C34.091 8.53597 34.4592 10.8083 34.4338 11.6017C34.402 12.8394 33.3484 12.649 32.8343 12.6617C30.2255 12.7061 27.9659 13.0235 26.03 11.7159C21.5869 8.71369 20.6856 7.5712 18.0388 7.60293C15.2904 7.63467 13.3037 10.1545 13.3037 13.2584C13.3037 16.3558 16.0076 18.8439 18.737 19.1423C22.2216 19.5231 23.3007 17.219 26.633 14.2676C27.5533 13.4551 33.9704 12.9664 34.9415 14.0581C39.6703 19.3708 40.9778 19.4596 41.822 18.9836C42.7741 18.4504 42.6471 14.8134 40.7176 11.7287Z" fill="#27AAE1"/>
<path d="M40.6795 40.8119C38.6865 43.8586 36.1158 45.6993 34.9353 44.9249C34.84 44.8615 34.7639 44.7789 34.6941 44.6901C34.0022 43.8713 34.4084 41.6116 34.4021 40.8119C34.3894 39.5678 33.3421 39.7392 32.828 39.7202C30.2192 39.6249 27.9723 39.2632 26.0046 40.5326C21.5044 43.446 20.5841 44.5695 17.9309 44.487C15.1826 44.4044 13.2466 41.8402 13.3101 38.7427C13.3736 35.6452 16.1219 33.2079 18.8576 32.9667C22.3486 32.6557 23.3832 34.9787 26.6521 37.9937C27.5534 38.8252 33.9641 39.4345 34.9543 38.3682C39.7846 33.1508 41.0921 33.0873 41.9299 33.5824C42.8693 34.1346 42.6726 37.7652 40.6795 40.8119Z" fill="#27AAE1"/>
<path d="M268 44.2268H270.109V52.8846H268V44.2268Z" fill="white"/>
<path d="M274.684 47.2862V52.8846H272.575V44.2268H275.142L279.016 49.8253V44.2268H281.136V52.8733L281.148 52.8846H278.569L274.684 47.2862Z" fill="white"/>
<path d="M289.891 49.6952H292V50.764C292 51.42 291.746 51.9629 291.231 52.3813C290.835 52.7093 290.388 52.8733 289.891 52.8733H285.519C284.863 52.8733 284.321 52.6188 283.902 52.1042C283.574 51.7084 283.41 51.2616 283.41 50.764V46.3474C283.41 45.6971 283.665 45.1599 284.168 44.7301C284.564 44.3965 285.016 44.2268 285.519 44.2268H289.891C290.541 44.2268 291.078 44.4813 291.508 44.9959C291.836 45.3917 292 45.8441 292 46.3474V47.4049H289.891V46.223H285.519V50.8771H289.891V49.6952Z" fill="white"/>
</svg>
